<?xml version="1.0" encoding="utf-8"?>

<!-- License Agreement at http://iconmonstr.com/license/ -->

<!DOCTYPE svg PUBLIC "-//W3C//DTD SVG 1.1//EN" "http://www.w3.org/Graphics/SVG/1.1/DTD/svg11.dtd">
<svg version="1.1" xmlns="http://www.w3.org/2000/svg" xmlns:xlink="http://www.w3.org/1999/xlink" x="0px" y="0px"
	 width="512px" height="512px" viewBox="0 0 512 512" enable-background="new 0 0 512 512" xml:space="preserve">
<path id="coffee-9-icon" d="M361.382,212.22c-0.557,8.008-1.229,19.135-2.006,26.892h30.584
	c-8.105,28.971-24.856,58.874-49.106,80.641c-4.112,12.994-8.104,25.443-16.287,43.056c55.018-30.312,92.185-97.663,96.991-150.588
	H361.382z M307.444,214.63c-6.635,72.887-26.922,120.905-48.955,162.099h-77.131c-28.16-52.486-43.287-98.259-48.993-162.099
	H307.444z M339.341,184.63H100.495c3.727,109.516,33.545,169.033,63.098,222.099h112.65
	C305.083,355.278,335.649,293.209,339.341,184.63z M349.25,462H90.442v-30.271H349.25V462z M234.941,170.117
	c77.81-73.28-16.099-69.412,1.912-120.117C174.739,115.503,259.997,116.972,234.941,170.117z M189.277,170.139
	c51.797-48.49-10.915-53.243,1.427-87.502C147.31,130.446,206.321,131.694,189.277,170.139z" fill="white"/>
</svg>
